<svg width="278" height="278" viewBox="0 0 278 278" fill="none" xmlns="http://www.w3.org/2000/svg">
<rect width="278" height="278" fill="#7A5631"/>
<path fill-rule="evenodd" clip-rule="evenodd" d="M90.4448 59.435C90.3202 57.2132 89.2153 55.7338 88.1074 54.2504C87.0129 52.785 85.9156 51.3157 85.7576 49.1232C85.3789 43.8665 86.2618 39.6738 90.4448 36.4678C95.9051 32.2829 102.989 33.7265 107.944 38.4989C110.976 41.4195 109.663 45.0934 108.305 48.8921C107.025 52.4707 105.707 56.1601 107.944 59.435C111.312 64.3665 116.787 62.484 122.49 60.523C127.923 58.6549 133.563 56.7157 137.785 60.5286C142.077 64.4035 140.541 70.4332 139.073 76.1962C137.528 82.261 136.059 88.0306 141.535 90.6828C144.143 91.9457 146.8 91.0814 149.348 90.2527C152.219 89.3189 154.951 88.4304 157.315 90.6828C161.998 95.1443 161.998 102.783 157.315 107.244C154.946 109.502 152.213 108.618 149.337 107.687C146.798 106.865 144.147 106.007 141.535 107.244C136.088 109.823 137.174 115.522 138.313 121.498C139.388 127.141 140.51 133.031 136.223 136.773C132.364 140.142 127.296 138.923 122.43 137.752C117.201 136.494 112.205 135.292 109.194 139.898C107.175 142.986 108.321 146.326 109.443 149.592C110.621 153.025 111.772 156.377 109.194 159.272C104.569 164.463 98.0485 165.376 91.6947 162.553C87.176 160.545 87.7729 155.787 88.3913 150.858C88.7528 147.977 89.1215 145.038 88.4807 142.554C88.4807 142.554 92.9183 128.884 88.6834 122.119C82.314 111.945 58.0134 120.088 58.0134 120.088C59.9232 112.952 60.954 106.638 54.5098 105.213C50.7692 104.386 47.7234 106.779 44.8158 109.063C41.6168 111.577 38.5851 113.959 34.9799 111.775C27.508 107.249 26.9189 94.7025 33.8862 89.4329C37.1084 86.9959 40.3174 88.7955 43.6759 90.6789C46.7552 92.4058 49.9601 94.2031 53.4161 92.8702C56.7809 91.5723 57.9319 89.0976 58.0668 86.0277C58.0668 86.0277 74.1796 92.0657 80.5589 86.0277C87.2989 79.6483 80.5589 62.264 80.5589 62.264C86.3495 64.1076 90.7526 64.9248 90.4448 59.435ZM120.556 134.931C115.965 131.392 116.833 124.53 120.556 120.088C123.781 116.24 128.415 114.236 132.899 116.494C138.529 119.329 138.365 127.901 134.149 132.587C130.546 136.592 124.823 138.218 120.556 134.931ZM101.651 86.0277C96.98 92.9402 97.8273 101.802 104.151 107.244C111.569 113.627 124.076 110.755 128.681 102.12C132.487 94.9826 131.035 86.7351 124.618 81.8092C117.385 76.256 106.757 78.4718 101.651 86.0277Z" fill="#FADFA6"/>
<path d="M59.1969 142.554C68.5174 147.375 77.2508 132.349 85.7576 138.492C87.2522 139.571 88.0719 140.97 88.4807 142.554C88.4807 142.554 92.9183 128.884 88.6834 122.119C82.314 111.945 58.0134 120.088 58.0134 120.088C55.6705 128.843 52.0047 138.835 59.1969 142.554Z" fill="#ECCB85"/>
<path d="M120.556 120.088C116.833 124.53 115.965 131.392 120.556 134.931C124.823 138.218 130.546 136.592 134.149 132.587C138.365 127.901 138.529 119.329 132.899 116.494C128.415 114.236 123.781 116.24 120.556 120.088Z" fill="#ECCB85"/>
<path d="M101.651 86.0277C96.98 92.9402 97.8273 101.802 104.151 107.244C111.569 113.627 124.076 110.755 128.681 102.12C132.487 94.9826 131.035 86.7351 124.618 81.8092C117.385 76.256 106.757 78.4718 101.651 86.0277Z" fill="#ECCB85"/>
<path d="M80.5589 86.0277C87.2989 79.6483 80.5589 62.264 80.5589 62.264C79.774 62.014 78.9636 61.7453 78.1359 61.4708C71.5104 59.2734 63.7818 56.7101 59.1969 60.5286C54.409 64.5164 55.7316 71.1699 56.9876 77.4883C57.5908 80.5229 58.1787 83.4802 58.0668 86.0277C58.0668 86.0277 74.1796 92.0657 80.5589 86.0277Z" fill="#ECCB85"/>
<path d="M194.03 194.458C191.406 199.377 191.84 204.321 195.322 208.676C200.256 214.844 210.584 214.819 215.548 208.676C219.975 203.197 219.307 195.323 213.986 190.708C207.995 185.513 197.762 187.461 194.03 194.458Z" fill="#ECCB85"/>
<path d="M145.03 197.739C145.03 197.739 161.196 184.568 170.551 189.324C180.475 194.369 177.558 216.956 177.558 216.956C176.345 213.694 171.359 215.348 165.515 217.286C158.889 219.483 151.161 222.046 146.576 218.228C141.788 214.24 143.11 207.587 144.366 201.268C144.604 200.073 144.839 198.89 145.03 197.739Z" fill="#ECCB85"/>
<path d="M197.893 155.71C194.166 160.98 196.89 168.777 202.736 171.512C208.068 174.007 217.11 173.722 217.11 166.981C217.11 160.241 216.259 153.9 210.08 151.961C205.329 150.47 200.768 151.645 197.893 155.71Z" fill="#ECCB85"/>
<path d="M155.396 160.241C156.026 167.563 159.742 172.303 166.333 175.553C176.056 180.347 188.331 176.887 192.737 166.981C197.143 157.076 190.659 144.11 179.769 141.18C168.101 138.041 154.361 148.202 155.396 160.241Z" fill="#ECCB85"/>
<path fill-rule="evenodd" clip-rule="evenodd" d="M175.486 224.506C176.594 223.023 177.699 221.543 177.824 219.322C177.879 218.343 177.784 217.564 177.558 216.956C177.558 216.956 180.475 194.369 170.551 189.324C161.196 184.568 145.03 197.739 145.03 197.739C145.459 195.156 145.665 192.736 145.176 190.708C145.176 190.708 154.087 184.315 153.365 178.678C152.814 174.377 146.576 169.893 146.576 169.893C147.43 167.106 146.098 163.176 144.709 159.078C142.458 152.437 140.057 145.354 146.576 141.983C151.02 139.685 155.641 140.265 160.182 140.834C165.164 141.459 170.049 142.072 174.5 138.858C178.337 136.087 177.726 131.211 177.134 126.492C176.515 121.563 175.918 116.805 180.437 114.798C186.791 111.974 191.842 114.798 194.03 118.538C195.919 121.768 194.927 124.992 193.942 128.193C192.936 131.465 191.937 134.711 194.03 137.911C197.059 142.545 202.786 141.559 208.709 140.539C214.155 139.602 219.767 138.636 223.602 141.983C227.889 145.726 226.767 151.615 225.692 157.258C224.553 163.234 223.467 168.933 228.914 171.512C231.526 172.749 234.177 171.891 236.716 171.07C239.592 170.139 242.325 169.255 244.694 171.512C249.376 175.974 249.376 183.612 244.694 188.074C242.33 190.326 239.598 189.438 236.727 188.504C234.179 187.675 231.522 186.811 228.914 188.074C223.438 190.726 224.907 196.496 226.452 202.56C227.92 208.323 229.456 214.353 225.164 218.228C220.941 222.041 215.302 220.102 209.869 218.234C204.166 216.273 198.691 214.39 195.322 219.322C193.085 222.596 194.404 226.286 195.684 229.864C197.041 233.663 198.355 237.337 195.322 240.258C190.367 245.03 183.284 246.474 177.824 242.289C173.641 239.083 172.758 234.89 173.137 229.633C173.294 227.441 174.392 225.972 175.486 224.506ZM195.322 208.676C191.84 204.321 191.406 199.377 194.03 194.458C197.762 187.461 207.995 185.513 213.986 190.708C219.307 195.323 219.975 203.197 215.548 208.676C210.584 214.819 200.256 214.844 195.322 208.676ZM202.736 171.512C196.89 168.777 194.166 160.98 197.893 155.71C200.768 151.645 205.329 150.47 210.08 151.961C216.259 153.9 217.11 160.241 217.11 166.981C217.11 173.722 208.068 174.007 202.736 171.512ZM155.396 160.241C156.026 167.563 159.742 172.303 166.333 175.553C176.056 180.347 188.331 176.887 192.737 166.981C197.143 157.076 190.659 144.11 179.769 141.18C168.101 138.041 154.361 148.202 155.396 160.241Z" fill="#FADFA6"/>
<path d="M121.265 189.324C114.298 184.054 114.887 171.507 122.359 166.981C125.964 164.798 128.996 167.18 132.195 169.693C135.102 171.978 138.148 174.371 141.889 173.544C144.653 172.932 146.042 171.636 146.576 169.893C146.576 169.893 152.814 174.377 153.365 178.678C154.087 184.315 145.176 190.708 145.176 190.708C144.663 188.581 143.384 186.885 140.795 185.886C137.339 184.553 134.134 186.351 131.055 188.078C127.696 189.961 124.487 191.761 121.265 189.324Z" fill="#ECCB85"/>
<path fill-rule="evenodd" clip-rule="evenodd" d="M85.9122 161.147C86.2767 164.897 90.7556 171.646 105.755 168.646C114.884 166.821 117.26 161.892 116.935 157.117C116.935 157.117 125.702 158.806 128.681 155.242C131.913 151.374 127.431 142.395 127.431 142.395C129.003 142.619 130.571 142.887 132.049 143.139C133.565 143.398 134.987 143.641 136.221 143.804C137.805 144.014 138.131 146.703 138.552 150.184C138.644 150.942 138.741 151.738 138.855 152.554C139.931 160.189 138.69 169.589 133.409 166.459C128.097 161.147 114.035 160.522 113.098 175.833C112.836 180.189 113.843 188.536 119.15 192.322C119.15 192.322 109.115 193.961 105.755 198.676C100.964 205.398 108.88 219.58 108.88 219.58C96.9696 220.181 90.7198 219.403 82.6746 218.401C76.9004 217.682 70.2013 216.847 59.8208 216.325C49.0406 215.783 57.3221 154.272 64.6639 150.705C66.8412 149.647 69.1974 148.238 71.5 146.862L71.6535 146.77C71.6535 146.77 72.6135 161.877 79.4655 162.585C82.0313 162.85 85.9122 161.147 85.9122 161.147ZM88.996 202.27C87.3095 201.511 87.2093 199.994 85.9122 198.676C84.6918 197.436 83.2366 197.323 82.5902 195.708C81.1694 192.157 86.9342 189.661 90.7147 190.239C93.8306 190.716 96.3176 192.573 96.6518 195.708C97.0692 199.623 92.5873 203.885 88.996 202.27ZM59.5077 196.821C55.8277 203.734 58.7626 206.408 63.1379 210.395L63.1383 210.396C63.631 210.845 64.142 211.31 64.6639 211.8C68.6849 215.578 77.0394 214.303 80.1316 206.957C82.1045 202.27 79.798 193.008 70.4036 192.322C69.9301 192.288 69.4829 192.252 69.0595 192.219L69.0579 192.219C63.8634 191.807 62.2449 191.679 59.5077 196.821ZM67.1226 182.896C62.9512 182.044 59.7038 176.319 62.4354 173.053C64.2781 170.85 66.9116 170.541 69.6224 171.491C73.2278 172.754 75.9041 176.93 73.9971 180.24C72.5603 182.734 69.9424 183.472 67.1226 182.896Z" fill="#FADFA6"/>
<path d="M136.221 193.176L122.785 193.957C121.393 193.63 120.189 193.063 119.15 192.322C119.15 192.322 109.115 193.961 105.755 198.676C100.964 205.398 108.88 219.58 108.88 219.58C118.685 219.086 136.117 220.622 135.44 217.393C134.763 214.164 134.253 206.331 137.627 200.832C141.002 195.332 138.096 193.436 136.221 193.176Z" fill="#ECCB85"/>
<path d="M64.6639 211.8C68.6849 215.578 77.0394 214.303 80.1316 206.957C82.1045 202.27 79.798 193.008 70.4036 192.322C69.9301 192.288 69.4829 192.252 69.0595 192.219L69.0579 192.219C63.8634 191.807 62.2449 191.679 59.5077 196.821C55.8277 203.734 58.7626 206.408 63.1379 210.395L63.1383 210.396C63.631 210.845 64.142 211.31 64.6639 211.8Z" fill="#ECCB85"/>
<path d="M85.9122 198.676C87.2093 199.994 87.3095 201.511 88.996 202.27C92.5873 203.885 97.0692 199.623 96.6518 195.708C96.3176 192.573 93.8306 190.716 90.7147 190.239C86.9342 189.661 81.1694 192.157 82.5902 195.708C83.2366 197.323 84.6918 197.436 85.9122 198.676Z" fill="#ECCB85"/>
<path d="M62.4354 173.053C59.7038 176.319 62.9512 182.044 67.1226 182.896C69.9424 183.472 72.5603 182.734 73.9971 180.24C75.9041 176.93 73.2278 172.754 69.6224 171.491C66.9116 170.541 64.2781 170.85 62.4354 173.053Z" fill="#ECCB85"/>
<path d="M127.431 142.395C119.792 141.305 112.051 141.242 114.035 148.96C115.401 151.039 116.726 154.046 116.935 157.117C116.935 157.117 125.702 158.806 128.681 155.242C131.913 151.374 127.431 142.395 127.431 142.395Z" fill="#ECCB85"/>
<path d="M85.9122 161.147C86.2767 156.304 86.3809 145.835 83.8811 142.711C82.1391 140.533 77.0583 143.54 71.6535 146.77C71.6535 146.77 72.6135 161.877 79.4655 162.585C82.0313 162.85 85.9122 161.147 85.9122 161.147Z" fill="#ECCB85"/>
<path fill-rule="evenodd" clip-rule="evenodd" d="M165.918 88.3512C171.339 95.0008 170.075 105.612 163.73 111.386C160.711 114.134 157.513 113.1 154.588 112.155C151.859 111.273 149.368 110.468 147.482 112.881C142.615 119.11 147.482 134.286 151.389 135.312C157.62 136.948 160.607 137.03 170.293 135.312C175.053 134.467 174.09 130.179 173.008 125.361C172 120.875 170.889 115.931 174.199 112.881C180.526 107.051 189.534 107.478 196.229 112.881C199.697 115.679 199.043 119.296 198.386 122.932C197.733 126.542 197.077 130.171 200.448 133.036C207.42 138.965 220.758 134.598 223.883 133.036C226.484 131.736 228.265 126.654 229.344 119.775C229.344 119.775 213.981 123.709 207.113 118.369C197.48 110.879 196.624 93.3583 207.113 87.1213C215.058 82.3971 230.43 91.1835 230.43 91.1835C229.721 76.7642 227.336 63.9767 223.883 63.0405C207.599 58.6247 190.285 57.4051 175.865 57.4038C175.865 57.4038 179.932 70.2471 175.865 76.497C169.615 86.1031 146.519 76.497 146.519 76.497C145.529 81.3864 144.989 85.2798 147.482 85.6954C150.57 86.21 153.2 85.8003 155.56 85.4327C159.472 84.8235 162.64 84.33 165.918 88.3512ZM188.521 91.1835C185.443 86.3844 178.689 84.8381 174.199 88.3512C169.941 91.6833 169.456 97.825 172.741 102.12C176.24 106.697 183.335 107.582 187.427 103.526C190.864 100.12 191.133 95.2569 188.521 91.1835Z" fill="#FADFA6"/>
<path d="M230.43 91.1835C230.43 91.1835 215.058 82.3971 207.113 87.1213C196.624 93.3583 197.48 110.879 207.113 118.369C213.981 123.709 229.344 119.775 229.344 119.775C230.618 111.658 230.916 101.04 230.43 91.1835Z" fill="#ECCB85"/>
<path d="M174.199 88.3512C178.689 84.8381 185.443 86.3844 188.521 91.1835C191.133 95.2569 190.864 100.12 187.427 103.526C183.335 107.582 176.24 106.697 172.741 102.12C169.456 97.825 169.941 91.6833 174.199 88.3512Z" fill="#ECCB85"/>
<path d="M175.865 57.4038C165.797 57.4029 157.139 57.996 151.229 58.5099C148.657 58.7335 148.429 61.9312 148.142 65.9586C148.01 67.7975 147.867 69.8094 147.482 71.7901C147.288 72.7888 147.082 73.779 146.881 74.7439C146.757 75.3392 146.635 75.925 146.519 76.497C146.519 76.497 169.615 86.1031 175.865 76.497C179.932 70.2471 175.865 57.4038 175.865 57.4038Z" fill="#ECCB85"/>
<path d="M177.939 219.041C177.691 223.458 173.57 224.941 173.252 229.353C172.873 234.61 173.756 238.802 177.939 242.008C183.399 246.193 190.483 244.75 195.438 239.977C201.327 234.305 190.826 225.792 195.438 219.041C202.016 209.412 216.624 225.763 225.279 217.947C234.087 209.995 218.349 192.966 229.029 187.793C234.575 185.107 240.348 192.044 244.809 187.793C249.492 183.332 249.492 175.693 244.809 171.232C240.348 166.981 234.599 173.869 229.029 171.232C218.439 166.217 232.544 149.408 223.717 141.703C215.712 134.715 199.96 146.524 194.145 137.631C190.005 131.298 197.965 124.788 194.145 118.257C191.958 114.517 186.906 111.694 180.552 114.517C171.708 118.447 182.461 132.912 174.615 138.578C166.108 144.721 156.012 136.882 146.691 141.703C133.637 148.454 156.354 170.09 142.004 173.263C134.148 175 129.356 162.533 122.474 166.701C115.002 171.227 114.413 183.774 121.38 189.043C127.557 193.715 133.685 182.819 140.91 185.606C152.881 190.223 136.832 209.736 146.691 217.947C156.074 225.762 178.623 206.85 177.939 219.041Z" stroke="#845116" stroke-width="1.87487"/>
<path d="M82.9182 142.959C80.4184 139.834 71.0428 147.386 63.701 150.953C56.3592 154.521 48.0778 216.031 58.8579 216.574C83.7014 217.823 87.4586 220.86 107.917 219.829C117.722 219.334 135.154 220.87 134.477 217.641C133.8 214.412 133.29 206.58 136.664 201.08C140.039 195.58 137.133 193.685 135.258 193.424L121.822 194.205C113.322 192.206 111.822 181.29 112.135 176.082C113.072 160.77 127.134 161.395 132.446 166.707C137.727 169.837 138.968 160.438 137.893 152.802C137.25 148.24 137.187 144.307 135.258 144.053C126.978 142.959 110.26 138.272 113.072 149.209C116.562 154.521 119.791 165.895 104.792 168.895C89.7927 171.895 85.3138 165.145 84.9493 161.395C85.3138 156.552 85.418 146.084 82.9182 142.959Z" stroke="#845116" stroke-width="1.87487"/>
<path d="M166.344 88.071C161.088 81.6234 156.113 86.7825 147.908 85.4151C144.65 84.8722 146.572 78.3915 147.908 71.5099C149.135 65.1911 147.908 58.5553 151.655 58.2296C166.03 56.9799 196.655 55.2612 224.309 62.7603C232.121 64.8786 234.467 127.677 224.309 132.756C221.184 134.318 207.846 138.684 200.873 132.756C194.109 127.004 203.565 118.177 196.655 112.601C189.96 107.198 180.952 106.77 174.625 112.601C167.76 118.927 179.911 133.4 170.719 135.031C161.033 136.75 158.046 136.668 151.815 135.031C147.908 134.005 143.041 118.829 147.908 112.601C151.815 107.601 158.321 116.417 164.156 111.106C170.501 105.331 171.764 94.7206 166.344 88.071Z" stroke="#8E5D33" stroke-width="1.87487"/>
<path d="M91.3823 59.435C91.1347 55.0184 87.013 53.5352 86.6951 49.1232C86.3164 43.8665 87.1993 39.6738 91.3823 36.4678C96.8426 32.2829 103.926 33.7265 108.881 38.4989C114.77 44.1707 104.269 52.6837 108.881 59.435C115.459 69.0645 130.067 52.7133 138.723 60.5286C147.53 68.4813 131.793 85.5104 142.473 90.6828C148.019 93.3689 153.791 86.4317 158.253 90.6828C162.935 95.1443 162.935 102.783 158.253 107.244C153.791 111.495 148.042 104.607 142.473 107.244C131.883 112.259 145.987 129.068 137.16 136.773C129.156 143.762 115.946 131.005 110.131 139.898C105.991 146.231 115.164 153.623 110.131 159.272C105.506 164.463 98.986 165.376 92.6322 162.553C83.7878 158.623 94.5412 144.158 86.6951 138.492C78.1883 132.349 69.4549 147.375 60.1344 142.554C47.0799 135.803 69.7977 108.386 55.4473 105.213C47.5911 103.476 42.7993 115.944 35.9174 111.775C28.4455 107.249 27.8564 94.7025 34.8237 89.4329C41.0002 84.7614 47.1283 95.657 54.3536 92.8702C66.3244 88.253 50.2756 68.7397 60.1344 60.5286C69.517 52.7143 92.0659 71.6263 91.3823 59.435Z" stroke="#845116" stroke-width="1.87487"/>
</svg>
