<svg width="32" height="32" viewBox="0 0 32 32" fill="none" xmlns="http://www.w3.org/2000/svg">
<path d="M5.67999 14.6933V21.32C5.67999 23.7467 5.67999 23.7467 7.97333 25.2933L14.28 28.9333C15.2267 29.48 16.7733 29.48 17.72 28.9333L24.0267 25.2933C26.32 23.7467 26.32 23.7467 26.32 21.32V14.6933C26.32 12.2667 26.32 12.2667 24.0267 10.72L17.72 7.08001C16.7733 6.53335 15.2267 6.53335 14.28 7.08001L7.97333 10.72C5.67999 12.2667 5.67999 12.2667 5.67999 14.6933Z" stroke="#007AFF" stroke-width="1.5" stroke-linecap="round" stroke-linejoin="round"/>
<path d="M23.3333 10.1733V6.66666C23.3333 3.99999 22 2.66666 19.3333 2.66666H12.6667C9.99999 2.66666 8.66666 3.99999 8.66666 6.66666V10.08" stroke="#007AFF" stroke-width="1.5" stroke-linecap="round" stroke-linejoin="round"/>
<path d="M16.84 14.6533L17.6 15.84C17.72 16.0267 17.9867 16.2133 18.1867 16.2667L19.5467 16.6133C20.3867 16.8267 20.6133 17.5467 20.0667 18.2133L19.1733 19.2933C19.04 19.4667 18.9333 19.7733 18.9467 19.9867L19.0267 21.3867C19.08 22.2533 18.4667 22.6933 17.6667 22.3733L16.36 21.8533C16.16 21.7733 15.8267 21.7733 15.6267 21.8533L14.32 22.3733C13.52 22.6933 12.9067 22.24 12.96 21.3867L13.04 19.9867C13.0533 19.7733 12.9467 19.4533 12.8133 19.2933L11.92 18.2133C11.3733 17.5467 11.6 16.8267 12.44 16.6133L13.8 16.2667C14.0133 16.2133 14.28 16.0133 14.3867 15.84L15.1467 14.6533C15.6267 13.9333 16.3733 13.9333 16.84 14.6533Z" stroke="#007AFF" stroke-width="1.5" stroke-linecap="round" stroke-linejoin="round"/>
</svg>
