<svg width="28" height="28" viewBox="0 0 28 28" fill="none" xmlns="http://www.w3.org/2000/svg">
<path d="M10.625 23.0834H16.375C21.1667 23.0834 23.0833 21.1667 23.0833 16.375V10.625C23.0833 5.83335 21.1667 3.91669 16.375 3.91669H10.625C5.83332 3.91669 3.91666 5.83335 3.91666 10.625V16.375C3.91666 21.1667 5.83332 23.0834 10.625 23.0834Z" stroke="#99A2AD" stroke-width="1.5" stroke-linecap="round" stroke-linejoin="round"/>
<path d="M10.625 11.5833C11.6836 11.5833 12.5417 10.7252 12.5417 9.66667C12.5417 8.60812 11.6836 7.75 10.625 7.75C9.56646 7.75 8.70834 8.60812 8.70834 9.66667C8.70834 10.7252 9.56646 11.5833 10.625 11.5833Z" stroke="#99A2AD" stroke-width="1.5" stroke-linecap="round" stroke-linejoin="round"/>
<path d="M4.55875 20.1604L9.28333 16.9883C10.0404 16.4804 11.1329 16.5379 11.8133 17.1225L12.1296 17.4004C12.8771 18.0425 14.0846 18.0425 14.8321 17.4004L18.8187 13.9792C19.5662 13.3371 20.7737 13.3371 21.5212 13.9792L23.0833 15.3208" stroke="#99A2AD" stroke-width="1.5" stroke-linecap="round" stroke-linejoin="round"/>
</svg>
